P2
24 21
255
175 169 160 156 174 186 189 184 189 180 179 174 142 116 128 143 146 155 160 
164 164 169 172 173 180 167 155 152 171 191 193 194 190 187 167 104 75 92 106 
112 126 135 139 144 153 165 171 175 188 161 153 157 178 190 195 194 192 159 
103 98 104 106 102 97 100 85 97 108 120 140 155 166 184 155 155 167 184 189 
194 191 150 125 133 146 144 145 134 127 112 91 65 66 67 85 103 136 168 149 163 
176 190 196 186 139 118 134 145 152 146 144 156 153 140 122 107 86 76 66 64 72 
158 157 174 190 197 182 120 116 128 127 139 136 136 108 144 159 146 125 131 
101 96 90 83 79 164 166 185 196 168 104 100 110 106 107 113 110 107 61 98 140 
112 95 101 102 123 103 113 103 172 181 197 158 84 89 89 85 92 69 67 67 60 48 
61 78 54 49 57 84 118 100 126 121 180 195 147 74 74 73 64 52 58 53 53 50 49 51 
51 53 52 44 41 46 60 116 140 128 190 155 73 66 64 55 50 52 52 53 49 44 44 45 
62 91 82 55 43 40 40 60 109 135 156 75 75 64 55 45 49 49 48 49 49 42 52 59 94 
164 164 111 63 40 41 42 74 121 84 87 75 58 48 43 55 76 58 61 57 34 53 76 82 185 
196 181 143 72 54 90 73 113 98 87 69 52 50 44 64 101 78 75 89 55 66 92 65 184 
202 200 189 134 74 108 100 100 116 107 91 80 58 45 72 103 114 67 79 86 81 63 
118 204 208 206 203 166 100 88 118 96 128 125 123 112 91 51 58 103 116 109 73 
58 70 117 186 205 206 203 193 160 127 105 123 112 124 137 137 133 116 86 83 101 
116 131 125 118 138 176 196 203 206 203 177 140 147 126 117 128 126 141 145 
142 136 127 104 101 104 120 133 144 152 160 172 180 182 179 177 158 145 133 
131 131 134 141 143 142 142 140 127 133 126 107 119 99 124 137 130 135 128 151 
167 172 173 163 140 124 138 141 145 143 142 145 144 144 132 119 125 104 129 
137 129 121 122 146 146 154 158 146 136 122 144 146 147 150 145 141 143 147 
142 139 137 131 133 139 140 136 148 153 157 151 147 150 147 124 153 151 149 
151 153 153 150 146 141 145 142 142 143 146 149 152 159 163 163 160 160 162 
141 130 
